<?xml version="1.0" encoding="UTF-8" standalone="no"?>
<!-- This is a Stata 16.0 generated SVG file (http://www.stata.com) -->

<svg version="1.1" width="600px" height="436px" viewBox="0 0 3960 2880" xmlns="http://www.w3.org/2000/svg" xmlns:xlink="http://www.w3.org/1999/xlink">
	<desc>Stata Graph - Graph</desc>
	<rect x="0" y="0" width="3960" height="2880" style="fill:#EAF2F3;stroke:none"/>
	<rect x="0.00" y="0.00" width="3959.88" height="2880.00" style="fill:#EAF2F3"/>
	<rect x="2.88" y="2.88" width="3954.12" height="2874.24" style="fill:none;stroke:#EAF2F3;stroke-width:5.76"/>
	<rect x="290.81" y="100.86" width="3568.21" height="1992.81" style="fill:#FFFFFF"/>
	<rect x="293.69" y="103.74" width="3562.45" height="1987.05" style="fill:none;stroke:#FFFFFF;stroke-width:5.76"/>
	<line x1="290.81" y1="1885.76" x2="3859.02" y2="1885.76" style="stroke:#EAF2F3;stroke-width:8.64"/>
	<line x1="290.81" y1="1311.91" x2="3859.02" y2="1311.91" style="stroke:#EAF2F3;stroke-width:8.64"/>
	<line x1="290.81" y1="738.07" x2="3859.02" y2="738.07" style="stroke:#EAF2F3;stroke-width:8.64"/>
	<line x1="290.81" y1="164.22" x2="3859.02" y2="164.22" style="stroke:#EAF2F3;stroke-width:8.64"/>
	<path d=" M354.05 1446.93 L784.33 948.45 L1214.48 618.77 L1644.64 419.03 L2074.92 318.54 L2505.07 292.93 L2935.23 323.37 L3365.51 394.65 L3795.66 495.14" stroke-linejoin="round" style="fill:none;stroke:#1A476F;stroke-width:8.64"/>
	<path d=" M354.05 2030.43 L784.33 1668.08 L1214.48 1524.52 L1644.64 1506.70 L2074.92 1559.30 L2505.07 1649.39 L2935.23 1757.55 L3365.51 1872.64 L3795.66 1988.23" stroke-linejoin="round" style="fill:none;stroke:#90353B;stroke-width:8.64"/>
	<line x1="290.81" y1="2093.67" x2="290.81" y2="100.86" style="stroke:#000000;stroke-width:5.76"/>
	<line x1="290.81" y1="1885.76" x2="250.84" y2="1885.76" style="stroke:#000000;stroke-width:5.76"/>
	<text x="200.73" y="1885.76" style="font-family:'Helvetica';font-size:99.99px;fill:#000000" transform="rotate(-90 200.73,1885.76)" text-anchor="middle">.15</text>
	<line x1="290.81" y1="1311.91" x2="250.84" y2="1311.91" style="stroke:#000000;stroke-width:5.76"/>
	<text x="200.73" y="1311.91" style="font-family:'Helvetica';font-size:99.99px;fill:#000000" transform="rotate(-90 200.73,1311.91)" text-anchor="middle">.2</text>
	<line x1="290.81" y1="738.07" x2="250.84" y2="738.07" style="stroke:#000000;stroke-width:5.76"/>
	<text x="200.73" y="738.07" style="font-family:'Helvetica';font-size:99.99px;fill:#000000" transform="rotate(-90 200.73,738.07)" text-anchor="middle">.25</text>
	<line x1="290.81" y1="164.22" x2="250.84" y2="164.22" style="stroke:#000000;stroke-width:5.76"/>
	<text x="200.73" y="164.22" style="font-family:'Helvetica';font-size:99.99px;fill:#000000" transform="rotate(-90 200.73,164.22)" text-anchor="middle">.3</text>
	<line x1="290.81" y1="2093.67" x2="3859.02" y2="2093.67" style="stroke:#000000;stroke-width:5.76"/>
	<line x1="354.17" y1="2093.67" x2="354.17" y2="2133.64" style="stroke:#000000;stroke-width:5.76"/>
	<text x="354.17" y="2223.62" style="font-family:'Helvetica';font-size:99.99px;fill:#000000" text-anchor="middle">0</text>
	<line x1="1214.48" y1="2093.67" x2="1214.48" y2="2133.64" style="stroke:#000000;stroke-width:5.76"/>
	<text x="1214.48" y="2223.62" style="font-family:'Helvetica';font-size:99.99px;fill:#000000" text-anchor="middle">2</text>
	<line x1="2074.92" y1="2093.67" x2="2074.92" y2="2133.64" style="stroke:#000000;stroke-width:5.76"/>
	<text x="2074.92" y="2223.62" style="font-family:'Helvetica';font-size:99.99px;fill:#000000" text-anchor="middle">4</text>
	<line x1="2935.35" y1="2093.67" x2="2935.35" y2="2133.64" style="stroke:#000000;stroke-width:5.76"/>
	<text x="2935.35" y="2223.62" style="font-family:'Helvetica';font-size:99.99px;fill:#000000" text-anchor="middle">6</text>
	<line x1="3795.66" y1="2093.67" x2="3795.66" y2="2133.64" style="stroke:#000000;stroke-width:5.76"/>
	<text x="3795.66" y="2223.62" style="font-family:'Helvetica';font-size:99.99px;fill:#000000" text-anchor="middle">8</text>
	<text x="2074.92" y="2333.64" style="font-family:'Helvetica';font-size:99.99px;fill:#000000" text-anchor="middle">step</text>
	<rect x="1317.32" y="2418.27" width="1515.32" height="326.34" style="fill:#FFFFFF"/>
	<rect x="1320.20" y="2421.15" width="1509.56" height="320.58" style="fill:none;stroke:#000000;stroke-width:5.76"/>
	<line x1="1360.51" y1="2511.46" x2="1734.85" y2="2511.46" style="stroke:#1A476F;stroke-width:8.64"/>
	<line x1="1360.51" y1="2651.43" x2="1734.85" y2="2651.43" style="stroke:#90353B;stroke-width:8.64"/>
	<text x="1794.87" y="2546.49" style="font-family:'Helvetica';font-size:99.99px;fill:#000000">persistent: irf of z -&gt; c</text>
	<text x="1794.87" y="2686.46" style="font-family:'Helvetica';font-size:99.99px;fill:#000000">transitory: irf of z -&gt; c</text>
</svg>
