<?xml version="1.0" encoding="UTF-8" standalone="no"?>
<!-- This is a Stata 16.0 generated SVG file (http://www.stata.com) -->

<svg version="1.1" width="600px" height="436px" viewBox="0 0 3960 2880" xmlns="http://www.w3.org/2000/svg" xmlns:xlink="http://www.w3.org/1999/xlink">
	<desc>Stata Graph - Graph</desc>
	<rect x="0" y="0" width="3960" height="2880" style="fill:#EAF2F3;stroke:none"/>
	<rect x="0.00" y="0.00" width="3959.88" height="2880.00" style="fill:#EAF2F3"/>
	<rect x="2.88" y="2.88" width="3954.12" height="2874.24" style="fill:none;stroke:#EAF2F3;stroke-width:5.76"/>
	<rect x="290.81" y="100.86" width="3568.21" height="1992.81" style="fill:#FFFFFF"/>
	<rect x="293.69" y="103.74" width="3562.45" height="1987.05" style="fill:none;stroke:#FFFFFF;stroke-width:5.76"/>
	<line x1="290.81" y1="1993.67" x2="3859.02" y2="1993.67" style="stroke:#EAF2F3;stroke-width:8.64"/>
	<line x1="290.81" y1="1631.45" x2="3859.02" y2="1631.45" style="stroke:#EAF2F3;stroke-width:8.64"/>
	<line x1="290.81" y1="1269.34" x2="3859.02" y2="1269.34" style="stroke:#EAF2F3;stroke-width:8.64"/>
	<line x1="290.81" y1="907.12" x2="3859.02" y2="907.12" style="stroke:#EAF2F3;stroke-width:8.64"/>
	<line x1="290.81" y1="545.01" x2="3859.02" y2="545.01" style="stroke:#EAF2F3;stroke-width:8.64"/>
	<line x1="290.81" y1="182.78" x2="3859.02" y2="182.78" style="stroke:#EAF2F3;stroke-width:8.64"/>
	<path d=" M354.05 453.81 L368.28 801.55 L382.39 882.37 L396.62 1095.59 L410.73 1381.34 L424.83 1031.49 L439.06 1293.10 L453.17 799.20 L467.40 1083.22 L481.51 1333.70 L495.74 988.55 L509.85 1567.96 L524.08 2030.43 L538.19 1078.89 L552.42 607.14 L566.53 599.46 L580.63 735.35 L594.87 573.23 L608.97 1325.28 L623.21 1155.74 L637.31 631.02 L651.54 1379.48 L665.65 1197.32 L679.88 1622.29 L693.99 1073.07 L708.10 735.72 L722.33 790.29 L736.44 688.07 L750.67 752.18 L764.77 958.84 L779.01 994.73 L793.11 1157.10 L807.35 948.70 L821.45 894.12 L835.56 709.23 L849.79 1063.29 L863.90 649.34 L878.13 926.92 L892.24 878.53 L906.47 1166.88 L920.58 563.45 L934.81 875.93 L948.91 686.83 L963.02 594.02 L977.25 562.59 L991.36 1150.91 L1005.59 1063.66 L1019.70 1022.08 L1033.93 1004.63 L1048.04 1243.97 L1062.27 1020.35 L1076.38 1037.06 L1090.61 686.96 L1104.72 784.23 L1118.82 1061.44 L1133.06 1140.64 L1147.16 822.34 L1161.39 1176.65 L1175.50 1088.54 L1189.73 1396.07 L1203.84 1320.83 L1218.07 1218.11 L1232.18 1013.79 L1246.29 1568.95 L1260.52 503.80 L1274.63 1104.50 L1288.86 1043.74 L1302.96 1184.82 L1317.19 754.16 L1331.30 606.02 L1345.53 1003.52 L1359.64 792.15 L1373.75 564.69 L1387.98 942.76 L1402.09 1427.25 L1416.32 1000.43 L1430.43 1511.03 L1444.66 1193.36 L1458.77 1551.25 L1473.00 1385.55 L1487.10 1621.55 L1501.34 1046.96 L1515.44 794.50 L1529.55 881.38 L1543.78 622.36 L1557.89 1051.29 L1572.12 1122.45 L1586.23 1052.77 L1600.46 934.22 L1614.57 706.26 L1628.80 761.33 L1642.90 1266.37 L1657.01 1168.73 L1671.24 164.22 L1685.35 987.43 L1699.58 883.36 L1713.69 1211.92 L1727.92 1234.32 L1742.03 1062.06 L1756.26 1194.47 L1770.37 1175.79 L1784.47 1862.99 L1798.71 1313.28 L1812.81 737.33 L1827.05 675.94 L1841.15 1481.71 L1855.38 938.80 L1869.49 1609.42 L1883.72 1758.17 L1897.83 1111.93 L1911.94 1373.92 L1926.17 1241.13 L1940.28 892.39 L1954.51 615.68 L1968.62 707.62 L1982.85 677.92 L1996.95 699.33 L2011.18 764.92 L2025.29 985.70 L2039.52 1039.16 L2053.63 982.73 L2067.74 1005.38 L2081.97 822.10 L2096.08 1052.77 L2110.31 1002.04 L2124.42 1136.68 L2138.65 979.14 L2152.76 1119.72 L2166.99 1067.50 L2181.09 945.97 L2195.20 1007.73 L2209.43 795.12 L2223.54 1106.85 L2237.77 889.05 L2251.88 1102.65 L2266.11 888.06 L2280.22 978.52 L2294.45 1042.38 L2308.56 1053.89 L2322.66 1208.09 L2336.89 953.89 L2351.00 1157.59 L2365.23 1262.17 L2379.34 1517.47 L2393.57 1405.60 L2407.68 1045.35 L2421.91 1130.62 L2436.02 1143.11 L2450.13 929.14 L2464.36 951.67 L2478.47 989.04 L2492.70 980.50 L2506.80 1215.39 L2521.03 1097.57 L2535.14 1128.39 L2549.37 885.09 L2563.48 986.69 L2577.71 876.05 L2591.82 1099.06 L2605.93 942.26 L2620.16 1170.46 L2634.27 1168.36 L2648.50 1022.45 L2662.61 1064.41 L2676.84 1079.88 L2690.94 767.89 L2705.18 1002.53 L2719.28 964.91 L2733.39 1049.43 L2747.62 835.59 L2761.73 902.78 L2775.96 1045.47 L2790.07 984.09 L2804.30 989.78 L2818.41 892.76 L2832.64 797.59 L2846.74 1038.91 L2860.85 1031.36 L2875.08 906.99 L2889.19 770.74 L2903.42 1185.44 L2917.53 727.18 L2931.76 1234.57 L2945.87 1105.12 L2960.10 1351.89 L2974.21 1116.14 L2988.32 1361.17 L3002.55 1189.03 L3016.65 1003.77 L3030.89 1109.95 L3044.99 1128.64 L3059.22 1250.90 L3073.33 1119.72 L3087.56 1001.79 L3101.67 788.19 L3115.90 932.61 L3130.01 1103.27 L3144.12 1057.72 L3158.35 1007.23 L3172.45 1019.98 L3186.69 962.19 L3200.79 1118.49 L3215.03 1027.03 L3229.13 1104.26 L3243.36 923.33 L3257.47 1182.96 L3271.58 1243.48 L3285.81 1043.49 L3299.92 1251.52 L3314.15 1048.57 L3328.26 1075.17 L3342.49 1166.13 L3356.59 1467.84 L3370.83 1125.91 L3384.93 1408.57 L3399.04 1888.11 L3413.27 1673.65 L3427.38 1308.57 L3441.61 1174.80 L3455.72 990.28 L3469.95 1144.23 L3484.06 990.77 L3498.29 1074.43 L3512.40 1087.43 L3526.50 1381.46 L3540.74 1059.33 L3554.84 1208.33 L3569.07 944.98 L3583.18 1077.77 L3597.41 1134.45 L3611.52 1234.69 L3625.75 1262.91 L3639.86 1067.38 L3654.09 1213.90 L3668.20 1046.59 L3682.30 988.05 L3696.54 1355.48 L3710.64 987.93 L3724.88 918.62 L3738.98 1103.76 L3753.21 1122.57 L3767.32 1082.60 L3781.55 1126.90 L3795.66 1206.35" stroke-linejoin="round" style="fill:none;stroke:#1A476F;stroke-width:8.64"/>
	<path d=" M354.05 1050.42 L368.28 848.09 L382.39 965.28 L396.62 992.51 L410.73 1064.65 L424.83 1161.55 L439.06 1043.37 L453.17 1132.10 L467.40 965.03 L481.51 1061.07 L495.74 1145.96 L509.85 1029.38 L524.08 1225.53 L538.19 1382.70 L552.42 1061.31 L566.53 901.42 L580.63 898.33 L594.87 943.87 L608.97 888.68 L623.21 1142.99 L637.31 1085.82 L651.54 908.23 L665.65 1161.31 L679.88 1100.05 L693.99 1244.10 L708.10 1058.59 L722.33 944.37 L736.44 962.43 L750.67 927.66 L764.77 948.94 L779.01 1018.74 L793.11 1030.87 L807.35 1085.82 L821.45 1015.40 L835.56 996.84 L849.79 934.09 L863.90 1053.76 L878.13 913.67 L892.24 1007.36 L906.47 990.90 L920.58 1088.54 L934.81 884.35 L948.91 989.78 L963.02 925.68 L977.25 894.00 L991.36 883.11 L1005.59 1082.10 L1019.70 1052.77 L1033.93 1038.79 L1048.04 1033.10 L1062.27 1114.16 L1076.38 1038.79 L1090.61 1044.48 L1104.72 926.05 L1118.82 958.72 L1133.06 1052.53 L1147.16 1079.50 L1161.39 971.84 L1175.50 1091.76 L1189.73 1062.18 L1203.84 1166.38 L1218.07 1141.26 L1232.18 1106.85 L1246.29 1037.80 L1260.52 1225.78 L1274.63 865.53 L1288.86 1068.49 L1302.96 1047.95 L1317.19 1095.84 L1331.30 950.06 L1345.53 899.57 L1359.64 1033.84 L1373.75 962.31 L1387.98 885.09 L1402.09 1012.68 L1416.32 1176.78 L1430.43 1032.60 L1444.66 1205.61 L1458.77 1098.44 L1473.00 1219.84 L1487.10 1164.28 L1501.34 1244.47 L1515.44 1050.42 L1529.55 964.79 L1543.78 993.87 L1557.89 906.00 L1572.12 1050.79 L1586.23 1074.93 L1600.46 1051.29 L1614.57 1011.19 L1628.80 933.85 L1642.90 952.16 L1657.01 1122.94 L1671.24 1090.15 L1685.35 750.07 L1699.58 1028.02 L1713.69 992.88 L1727.92 1104.01 L1742.03 1111.80 L1756.26 1053.76 L1770.37 1098.69 L1784.47 1092.50 L1798.71 1325.40 L1812.81 1140.02 L1827.05 945.11 L1841.15 923.95 L1855.38 1196.58 L1869.49 1013.05 L1883.72 1240.01 L1897.83 1290.88 L1911.94 1072.70 L1926.17 1161.31 L1940.28 1116.63 L1954.51 998.57 L1968.62 904.52 L1982.85 935.21 L1996.95 924.81 L2011.18 931.62 L2025.29 953.52 L2039.52 1028.02 L2053.63 1046.09 L2067.74 1027.03 L2081.97 1034.58 L2096.08 972.58 L2110.31 1050.55 L2124.42 1033.34 L2138.65 1079.01 L2152.76 1025.80 L2166.99 1073.32 L2181.09 1055.74 L2195.20 1014.66 L2209.43 1035.57 L2223.54 963.42 L2237.77 1068.86 L2251.88 995.23 L2266.11 1067.38 L2280.22 994.86 L2294.45 1025.42 L2308.56 1046.96 L2322.66 1050.92 L2336.89 1103.27 L2351.00 1017.26 L2365.23 1086.19 L2379.34 1121.83 L2393.57 1208.46 L2407.68 1171.08 L2421.91 1049.43 L2436.02 1078.14 L2450.13 1082.48 L2464.36 1010.08 L2478.47 1017.50 L2492.70 1030.00 L2506.80 1027.03 L2521.03 1106.48 L2535.14 1066.76 L2549.37 1077.15 L2563.48 994.86 L2577.71 1029.01 L2591.82 991.52 L2605.93 1066.88 L2620.16 1013.79 L2634.27 1091.01 L2648.50 1090.40 L2662.61 1041.14 L2676.84 1055.25 L2690.94 1060.57 L2705.18 954.88 L2719.28 1034.09 L2733.39 1021.22 L2747.62 1049.80 L2761.73 977.41 L2775.96 1000.06 L2790.07 1048.20 L2804.30 1027.53 L2818.41 1029.38 L2832.64 996.47 L2846.74 964.17 L2860.85 1045.72 L2875.08 1043.25 L2889.19 1001.05 L2903.42 954.88 L2917.53 1095.10 L2931.76 940.16 L2945.87 1111.68 L2960.10 1068.12 L2974.21 1151.78 L2988.32 1072.33 L3002.55 1155.37 L3016.65 1097.45 L3030.89 1034.83 L3044.99 1070.72 L3059.22 1077.03 L3073.33 1118.61 L3087.56 1074.31 L3101.67 1034.33 L3115.90 961.94 L3130.01 1010.57 L3144.12 1068.24 L3158.35 1052.90 L3172.45 1035.82 L3186.69 1040.15 L3200.79 1020.47 L3215.03 1073.32 L3229.13 1042.38 L3243.36 1068.61 L3257.47 1007.36 L3271.58 1095.22 L3285.81 1115.76 L3299.92 1048.32 L3314.15 1118.73 L3328.26 1050.18 L3342.49 1059.09 L3356.59 1089.90 L3370.83 1192.24 L3384.93 1076.78 L3399.04 1172.57 L3413.27 1335.18 L3427.38 1263.28 L3441.61 1140.14 L3455.72 1094.85 L3469.95 1032.35 L3484.06 1084.21 L3498.29 1032.23 L3512.40 1060.32 L3526.50 1064.65 L3540.74 1164.15 L3554.84 1055.25 L3569.07 1105.62 L3583.18 1016.39 L3597.41 1061.19 L3611.52 1080.25 L3625.75 1114.28 L3639.86 1123.81 L3654.09 1057.72 L3668.20 1107.23 L3682.30 1050.67 L3696.54 1030.75 L3710.64 1154.99 L3724.88 1030.62 L3738.98 1007.11 L3753.21 1069.48 L3767.32 1075.92 L3781.55 1062.30 L3795.66 1077.28" stroke-linejoin="round" style="fill:none;stroke:#90353B;stroke-width:8.64"/>
	<line x1="290.81" y1="2093.67" x2="290.81" y2="100.86" style="stroke:#000000;stroke-width:5.76"/>
	<line x1="290.81" y1="1993.67" x2="250.84" y2="1993.67" style="stroke:#000000;stroke-width:5.76"/>
	<text x="200.73" y="1993.67" style="font-family:'Helvetica';font-size:99.99px;fill:#000000" transform="rotate(-90 200.73,1993.67)" text-anchor="middle">-10</text>
	<line x1="290.81" y1="1631.45" x2="250.84" y2="1631.45" style="stroke:#000000;stroke-width:5.76"/>
	<text x="200.73" y="1631.45" style="font-family:'Helvetica';font-size:99.99px;fill:#000000" transform="rotate(-90 200.73,1631.45)" text-anchor="middle">-5</text>
	<line x1="290.81" y1="1269.34" x2="250.84" y2="1269.34" style="stroke:#000000;stroke-width:5.76"/>
	<text x="200.73" y="1269.34" style="font-family:'Helvetica';font-size:99.99px;fill:#000000" transform="rotate(-90 200.73,1269.34)" text-anchor="middle">0</text>
	<line x1="290.81" y1="907.12" x2="250.84" y2="907.12" style="stroke:#000000;stroke-width:5.76"/>
	<text x="200.73" y="907.12" style="font-family:'Helvetica';font-size:99.99px;fill:#000000" transform="rotate(-90 200.73,907.12)" text-anchor="middle">5</text>
	<line x1="290.81" y1="545.01" x2="250.84" y2="545.01" style="stroke:#000000;stroke-width:5.76"/>
	<text x="200.73" y="545.01" style="font-family:'Helvetica';font-size:99.99px;fill:#000000" transform="rotate(-90 200.73,545.01)" text-anchor="middle">10</text>
	<line x1="290.81" y1="182.78" x2="250.84" y2="182.78" style="stroke:#000000;stroke-width:5.76"/>
	<text x="200.73" y="182.78" style="font-family:'Helvetica';font-size:99.99px;fill:#000000" transform="rotate(-90 200.73,182.78)" text-anchor="middle">15</text>
	<line x1="290.81" y1="2093.67" x2="3859.02" y2="2093.67" style="stroke:#000000;stroke-width:5.76"/>
	<line x1="382.51" y1="2093.67" x2="382.51" y2="2133.64" style="stroke:#000000;stroke-width:5.76"/>
	<text x="382.51" y="2223.62" style="font-family:'Helvetica';font-size:99.99px;fill:#000000" text-anchor="middle">1955q3</text>
	<line x1="1232.30" y1="2093.67" x2="1232.30" y2="2133.64" style="stroke:#000000;stroke-width:5.76"/>
	<text x="1232.30" y="2223.62" style="font-family:'Helvetica';font-size:99.99px;fill:#000000" text-anchor="middle">1970q3</text>
	<line x1="2081.97" y1="2093.67" x2="2081.97" y2="2133.64" style="stroke:#000000;stroke-width:5.76"/>
	<text x="2081.97" y="2223.62" style="font-family:'Helvetica';font-size:99.99px;fill:#000000" text-anchor="middle">1985q3</text>
	<line x1="2931.76" y1="2093.67" x2="2931.76" y2="2133.64" style="stroke:#000000;stroke-width:5.76"/>
	<text x="2931.76" y="2223.62" style="font-family:'Helvetica';font-size:99.99px;fill:#000000" text-anchor="middle">2000q3</text>
	<line x1="3781.55" y1="2093.67" x2="3781.55" y2="2133.64" style="stroke:#000000;stroke-width:5.76"/>
	<text x="3781.55" y="2223.62" style="font-family:'Helvetica';font-size:99.99px;fill:#000000" text-anchor="middle">2015q3</text>
	<text x="2074.92" y="2333.64" style="font-family:'Helvetica';font-size:99.99px;fill:#000000" text-anchor="middle">Date (quarters)</text>
	<rect x="996.43" y="2418.27" width="2156.96" height="326.34" style="fill:#FFFFFF"/>
	<rect x="999.31" y="2421.15" width="2151.20" height="320.58" style="fill:none;stroke:#000000;stroke-width:5.76"/>
	<line x1="1039.62" y1="2511.46" x2="1414.09" y2="2511.46" style="stroke:#1A476F;stroke-width:8.64"/>
	<line x1="1039.62" y1="2651.43" x2="1414.09" y2="2651.43" style="stroke:#90353B;stroke-width:8.64"/>
	<text x="1473.99" y="2546.49" style="font-family:'Helvetica';font-size:99.99px;fill:#000000">Growth rate of real GDP (GDPC96)</text>
	<text x="1473.99" y="2686.46" style="font-family:'Helvetica';font-size:99.99px;fill:#000000">xb  prediction, y, onestep</text>
</svg>
